# xmcd
#
# Track frame offsets:
#	225
#	14214
#	36161
#	49261
#	68864
#	82496
#	95190
#	116312
#
# Disc length: 1829 seconds
#
# Revision: 0
# Processed by: cddbd v1.5.2PL0 Copyright (c) Steve Scherf et al.
# Submitted via: EasyCDDAExtractor 7.1.2.1
#
DISCID=76072208
DTITLE=Angel and The Rattlesnakes - Dedicated To
DYEAR=1999
DGENRE=Danske Grupper
TTITLE0=Your Way
TTITLE1=Over and Over
TTITLE2=Ain't Seen You Babe
TTITLE3=Real Fine Love
TTITLE4=We Threw Our Love Away
TTITLE5=Gotta Move On
TTITLE6=Cherry Bomb
TTITLE7=Dedicated To
EXTD=
EXTT0=
EXTT1=
EXTT2=
EXTT3=
EXTT4=
EXTT5=
EXTT6=
EXTT7=
PLAYORDER=
